<svg width="17" height="17" xmlns="http://www.w3.org/2000/svg" xmlns:xlink="http://www.w3.org/1999/xlink" xmlns:svgjs="http://svgjs.com/svgjs" viewBox="0 0 17 16.999" fill="#fff"><svg xmlns="http://www.w3.org/2000/svg" width="17" height="17" viewBox="1.798 1.798 14.404 14.404"><path paint-order="stroke fill markers" fill-rule="evenodd" d="M13.418 1.798H4.582A2.787 2.787 0 0 0 1.798 4.58v8.837a2.786 2.786 0 0 0 2.784 2.783h8.836a2.786 2.786 0 0 0 2.784-2.783V7.521v-2.94a2.787 2.787 0 0 0-2.784-2.783zm.877 1.61l.315-.001v2.391l-2.408.008-.008-2.391 2.1-.007zM9 6.59c1.997 0 2.41 1.875 2.41 2.41A2.413 2.413 0 0 1 9 11.41 2.413 2.413 0 0 1 6.59 9c0-.535.413-2.41 2.41-2.41zm5.624 6.653c0 .762-.62 1.38-1.38 1.38H4.731c-.762 0-1.38-.618-1.38-1.38V7.397h2c-.186.456-.29 1.08-.29 1.603A3.943 3.943 0 0 0 9 12.94 3.943 3.943 0 0 0 12.938 9c0-.523-.105-1.147-.29-1.603h1.976v5.846z"/></svg></svg>